<?xml version="1.0" encoding="UTF-8"?>
<svg version="1.1" xmlns="http://www.w3.org/2000/svg" width="96" height="96">
<path d="M0 0 C6.46310114 0.16572054 10.46968981 3.77642957 15 8 C19.16932059 12.55624618 22.58519232 16.86916673 24 23 C22.68 23.33 21.36 23.66 20 24 C20.32226562 25.13824219 20.64453125 26.27648437 20.9765625 27.44921875 C23.66641791 38.27291129 23.45933761 51.13119739 18 61 C12.37977112 70.01275045 4.47361334 77.02966993 -5.71484375 80.33984375 C-17.69375935 82.7470218 -29.91121572 82.04405611 -40.41796875 75.4921875 C-49.22085629 69.15174924 -55.83661945 60.76569846 -58 50 C-59.33804566 37.58281916 -58.27526374 26.61109291 -50.8125 16.25 C-44.04411608 8.21703479 -35.64116122 1.77850093 -24.88085938 0.80908203 C-16.5647419 0.38410656 -9.03325867 0.72557795 -1 3 C-0.67 2.01 -0.34 1.02 0 0 Z " fill="#4FE5FE" transform="translate(66,7)"/>
<path d="M0 0 C6.46310114 0.16572054 10.46968981 3.77642957 15 8 C19.16932059 12.55624618 22.58519232 16.86916673 24 23 C22.68 23.33 21.36 23.66 20 24 C20.32226562 25.13824219 20.64453125 26.27648437 20.9765625 27.44921875 C23.65451479 38.22501439 23.50618192 51.19360107 18 61 C15.8348762 64.16191527 13.52938699 67.12246705 11 70 C8.04491732 68.68144346 6.0997804 67.30525224 3.93359375 64.91015625 C3.36447266 64.28947266 2.79535156 63.66878906 2.20898438 63.02929688 C1.62439453 62.38025391 1.03980469 61.73121094 0.4375 61.0625 C-0.70728663 59.80124952 -1.8545005 58.54219866 -3.00390625 57.28515625 C-3.91619995 56.25249634 -3.91619995 56.25249634 -4.84692383 55.19897461 C-7.01727345 52.87782157 -7.01727345 52.87782157 -9.89331055 50.78735352 C-14.79925003 46.7910199 -18.06157629 43.76385355 -18.87866211 37.2800293 C-19.21437749 31.77731127 -18.96308429 26.31236834 -18.6875 20.8125 C-18.63223171 18.88751045 -18.58205767 16.96236754 -18.53710938 15.03710938 C-18.41679293 10.35423876 -18.22756052 5.67883519 -18 1 C-16.55478869 0.98815314 -15.1095494 0.97968623 -13.66430664 0.97265625 C-12.85949356 0.96758057 -12.05468048 0.96250488 -11.22547913 0.95727539 C-7.58069238 1.02724778 -4.48302296 1.98675696 -1 3 C-0.67 2.01 -0.34 1.02 0 0 Z " fill="#0277D4" transform="translate(66,7)"/>
<path d="M0 0 C6.46310114 0.16572054 10.46968981 3.77642957 15 8 C19.16932059 12.55624618 22.58519232 16.86916673 24 23 C23.34515625 23.23364258 22.6903125 23.46728516 22.015625 23.70800781 C13.90489657 26.62638079 5.89873837 29.7793852 -2.09765625 32.99609375 C-3.07605469 33.38410156 -4.05445313 33.77210937 -5.0625 34.171875 C-6.37927734 34.6992627 -6.37927734 34.6992627 -7.72265625 35.23730469 C-10 36 -10 36 -13 36 C-12.36961486 32.23982289 -11.2866928 29.00807915 -9.78515625 25.5078125 C-9.34623047 24.47269531 -8.90730469 23.43757813 -8.45507812 22.37109375 C-7.76575195 20.76427734 -7.76575195 20.76427734 -7.0625 19.125 C-3.01158101 9.74374939 -3.01158101 9.74374939 0 0 Z " fill="#C566E7" transform="translate(66,7)"/>
<path d="M0 0 C13.2 0 26.4 0 40 0 C40 12.45057084 37.15328397 19.72449436 29 29 C26.04491732 27.68144346 24.0997804 26.30525224 21.93359375 23.91015625 C21.37043457 23.29543457 20.80727539 22.68071289 20.22705078 22.04736328 C19.63649902 21.3923584 19.04594727 20.73735352 18.4375 20.0625 C13.07577221 14.20319031 7.59474965 8.5262828 1.9140625 2.9765625 C0 1 0 1 0 0 Z " fill="#199BE2" transform="translate(48,48)"/>
</svg>
